<?xml version="1.0" encoding="UTF-8"?><svg id="b" xmlns="http://www.w3.org/2000/svg" viewBox="0 0 609.8149 165.7612"><g id="c"><path d="M151.3945,36.2832l-5.5254,3.5913c-6.9985-10.252-16.0391-18.356-27.1201-24.3115-11.0825-5.9541-23.0381-8.9326-35.8687-8.9326-10.314,0-20.1836,2.0117-29.6069,6.0317-9.4248,4.022-17.543,9.4395-24.3574,16.2539-6.8149,6.8145-12.2339,14.9341-16.2539,24.3574-4.022,9.4253-6.0317,19.2925-6.0317,29.6069s2.0098,20.1836,6.0317,29.6064c4.02,9.4248,9.439,17.543,16.2539,24.3584,6.8145,6.8145,14.9326,12.2334,24.3574,16.2529,9.4233,4.0225,19.293,6.0322,29.6069,6.0322,12.8306,0,24.8022-3.0068,35.9146-9.0244,11.1113-6.0166,20.1675-14.1504,27.1665-24.4043l5.3413,4.0518c-7.6133,11.0508-17.4365,19.8154-29.4688,26.292-12.0337,6.4766-25.0181,9.7158-38.9536,9.7158-11.2349,0-21.9634-2.1963-32.1855-6.585-10.2217-4.3887-19.0322-10.2822-26.4297-17.6807-7.3984-7.3975-13.2925-16.208-17.6812-26.4297C2.1943,104.8433,0,94.1157,0,82.8804s2.1943-21.9629,6.584-32.1851c4.3887-10.2222,10.2827-19.0308,17.6812-26.4297,7.3975-7.3975,16.208-13.291,26.4297-17.6812C60.917,2.1958,71.6455,0,82.8804,0c13.9976,0,27.0122,3.2549,39.0459,9.7612,12.0317,6.5083,21.855,15.3491,29.4683,26.522ZM140.5283,43.8345l-5.5254,3.5913c-5.7715-8.4722-13.2466-15.1787-22.4238-20.1211-9.1787-4.9414-19.0786-7.4136-29.6987-7.4136-8.5342,0-16.7002,1.6577-24.4961,4.9731-7.7974,3.3149-14.5039,7.7812-20.1216,13.3989s-10.0835,12.3257-13.3989,20.1211c-3.3149,7.7979-4.9727,15.9639-4.9727,24.4961s1.6577,16.7002,4.9727,24.4961c3.3154,7.7969,7.7817,14.5039,13.3989,20.1211,5.6177,5.6172,12.3242,10.084,20.1216,13.3994,7.7959,3.3145,15.9619,4.9727,24.4961,4.9727,10.6821,0,20.5962-2.4863,29.7446-7.459,9.147-4.9736,16.6064-11.6953,22.3779-20.168l5.3408,3.96c-6.3857,9.333-14.6274,16.7139-24.7256,22.1475-10.0996,5.4336-21.0122,8.1494-32.7378,8.1494-12.5864,0-24.2197-3.1152-34.9019-9.3467-10.6826-6.2305-19.1406-14.6885-25.3706-25.3701-6.2319-10.6826-9.3472-22.3164-9.3472-34.9023s3.1152-24.2197,9.3472-34.9019c6.23-10.6821,14.688-19.1387,25.3706-25.3706,10.6821-6.2305,22.3154-9.3472,34.9019-9.3472,11.7871,0,22.7461,2.7485,32.8755,8.2422,10.1299,5.4951,18.3862,12.9385,24.7725,22.3315ZM129.4775,51.2017l-5.5254,3.5913c-4.5439-6.6304-10.4219-11.8936-17.6353-15.793-7.2144-3.8979-15.0264-5.8477-23.4365-5.8477-9.0249,0-17.3447,2.2256-24.9565,6.6763-7.6133,4.4521-13.645,10.4839-18.0952,18.0957-4.4521,7.6133-6.6768,15.9316-6.6768,24.9561s2.2246,17.3447,6.6768,24.9561c4.4502,7.6133,10.4819,13.6455,18.0952,18.0957,7.6118,4.4521,15.9316,6.6768,24.9565,6.6768,8.4102,0,16.2378-1.9639,23.4824-5.8936,7.2437-3.9287,13.1372-9.2393,17.6812-15.9316l5.4336,3.7754c-5.1572,7.6133-11.8335,13.6289-20.0298,18.0498-8.1958,4.4199-17.0522,6.6299-26.5674,6.6299-10.1919,0-19.6152-2.5166-28.2715-7.5508-8.6567-5.0332-15.5029-11.8799-20.5361-20.5361-5.0347-8.6562-7.5513-18.0801-7.5513-28.2715s2.5166-19.6152,7.5513-28.2715c5.0332-8.6562,11.8794-15.501,20.5361-20.5356,8.6562-5.0337,18.0796-7.5513,28.2715-7.5513,9.5151,0,18.3716,2.21,26.5674,6.6304,8.1963,4.4199,14.8726,10.4375,20.0298,18.0493ZM118.5186,58.7534l-5.4331,3.5908c-3.3149-4.9111-7.6289-8.7944-12.9385-11.6489-5.311-2.855-11.0664-4.2822-17.2666-4.2822-10.0698,0-18.6641,3.561-25.7852,10.6821-7.1226,7.123-10.6826,15.7168-10.6826,25.7852s3.5601,18.6641,10.6826,25.7852c7.1211,7.1221,15.7153,10.6826,25.7852,10.6826,6.2002,0,11.9556-1.4424,17.2666-4.3281,5.3096-2.8857,9.6235-6.7832,12.9385-11.6953l5.3413,3.8672c-3.9297,5.7715-9.0249,10.3457-15.2871,13.7217-6.2617,3.377-13.0161,5.0645-20.2593,5.0645-5.8335,0-11.4048-1.1348-16.7144-3.4072-5.311-2.2705-9.8994-5.3408-13.7676-9.209-3.8677-3.8672-6.938-8.4561-9.209-13.7676-2.272-5.3096-3.4072-10.8809-3.4072-16.7139s1.1353-11.4033,3.4072-16.7139c2.271-5.3096,5.3413-9.8999,9.209-13.7676,3.8682-3.8677,8.4565-6.937,13.7676-9.209,5.3096-2.2705,10.8809-3.4072,16.7144-3.4072,7.3052,0,14.0894,1.7036,20.3516,5.1108s11.3574,8.0278,15.2866,13.8599Z"/><path d="M296.9883,83.4331c5.4639-7.3057,8.1963-15.1953,8.1963-23.667,0-8.2881-2.1963-16.0078-6.585-23.1606-4.3896-7.1514-10.2998-12.8306-17.7266-17.0366-7.4297-4.2041-15.4111-6.3081-23.9434-6.3081h-86.1963v145.8696h-6.6299V6.6304h92.8262c9.6992,0,18.7705,2.3945,27.2119,7.1831,8.4404,4.7886,15.1631,11.2808,20.168,19.4771,5.0029,8.1958,7.5049,17.022,7.5049,26.4756,0,9.0244-2.5479,16.9443-7.6436,23.7588,5.0957,7.0605,7.6436,14.2441,7.6436,21.5488,0,8.2275-1.4736,15.7637-4.4199,22.6084-2.9473,6.8457-6.9229,12.54-11.9258,17.082-5.0049,4.5439-10.8203,8.0742-17.4512,10.5908-6.6299,2.5176-13.6602,3.7754-21.0879,3.7754h-42.7295v-6.6309h42.7295c6.4463,0,12.6162-1.2109,18.5098-3.6367,5.8936-2.4248,11.0186-5.7246,15.3789-9.9004,4.3584-4.1738,7.8418-9.209,10.4521-15.1025,2.6084-5.8936,3.9141-12.1553,3.9141-18.7861,0-2.9463-.6914-6.4922-2.0723-10.6357-1.3818-4.1445-3.4229-7.8125-6.124-11.0049ZM298.5537,59.7661c0,8.5957-3.0391,16.3613-9.1172,23.2988,6.0781,6.7539,9.1172,14.0889,9.1172,22.0088,0,7.6748-1.9189,14.6582-5.7559,20.9502-3.8369,6.2939-8.9326,11.1748-15.2861,14.6426-6.3545,3.4688-13.2148,5.2031-20.582,5.2031h-42.7295v-6.6309h42.7295c9.5771,0,17.8027-3.207,24.6797-9.623,6.875-6.415,10.3145-14.5957,10.3145-24.542,0-3.5596-.9072-7.5049-2.7168-11.833-1.8115-4.3281-4.3145-7.6279-7.5059-9.8994,6.8145-6.3848,10.2227-14.2422,10.2227-23.5752,0-8.9629-3.5-16.7446-10.499-23.3447-6.998-6.5986-15.1641-9.8994-24.4951-9.8994h-72.9346v132.6084h-6.6309V19.8911h79.5654c7.3047,0,14.166,1.7959,20.582,5.3872,6.4141,3.5918,11.5254,8.4722,15.333,14.6426,3.8057,6.1699,5.709,12.7856,5.709,19.8452ZM214.2002,80.6704h42.7295c6.0781,0,11.2188-1.8262,15.4248-5.4795,4.2041-3.6523,6.3076-8.7949,6.3076-15.4248,0-5.3413-2.1953-10.0063-6.584-13.9976-4.3896-3.9902-9.4395-5.9858-15.1484-5.9858h-59.6738v119.3477h-6.6309V33.1523h66.3047c7.5508,0,14.166,2.6562,19.8447,7.9653,5.6777,5.311,8.5186,11.5273,8.5186,18.6484,0,5.5869-1.3047,10.4678-3.9141,14.6416-2.6104,4.1758-6.124,7.3994-10.5439,9.6699,9.6377,3.4385,14.458,10.4375,14.458,20.9961,0,8.3506-2.7627,15.0264-8.2881,20.0293-5.5254,5.0049-12.2178,7.5059-20.0752,7.5059h-42.7295v-6.6309h42.7295c6.0781,0,11.2188-1.8262,15.4248-5.4795,4.2041-3.6514,6.3076-8.7939,6.3076-15.4248,0-4.4805-1.5967-8.4404-4.7881-11.8789-3.1934-3.4375-7.8896-5.4336-14.0898-5.9863-.6143.0615-1.5654.0918-2.8545.0918h-42.7295v-6.6299ZM210.5166,159.1304h-6.6309V46.4131h53.0439c4.1738,0,7.7354,1.2749,10.6816,3.8218,2.9473,2.5483,4.4209,5.7251,4.4209,9.5312,0,5.0342-1.3818,8.6719-4.1445,10.9121-2.7627,2.2422-6.416,3.3613-10.958,3.3613h-42.7295v-6.6299h42.7295c5.6475,0,8.4717-2.5469,8.4717-7.6436,0-2.0869-.7979-3.73-2.3936-4.9268-1.5977-1.1973-3.624-1.7959-6.0781-1.7959h-46.4131v106.0869ZM265.4014,105.9946c0-2.3945-.7217-3.9902-2.1641-4.7881-1.4434-.7979-3.5449-1.1973-6.3076-1.1973h-42.7295v-6.6309h42.7295c10.0674,0,15.1025,4.2061,15.1025,12.6162,0,4.7285-1.3818,8.1357-4.1445,10.2217-2.7627,2.0879-6.416,3.1318-10.958,3.1318h-42.7295v-6.6309h42.7295c5.6475,0,8.4717-2.2402,8.4717-6.7227Z"/><path d="M411.731,159.1304h-84.9976V6.6304h84.9976c11.9717,0,23.1445,3.4072,33.5205,10.2222,10.375,6.8145,18.6484,16.0854,24.8184,27.8105,6.1699,11.7271,9.2549,24.4653,9.2549,38.2173,0,10.3145-1.8271,20.1836-5.4795,29.6064-3.6533,9.4248-8.5176,17.543-14.5957,24.3584-6.0781,6.8145-13.2773,12.2334-21.5947,16.2529-8.3203,4.0225-16.9609,6.0322-25.9238,6.0322ZM333.3633,152.4995h78.3677c8.042,0,15.8076-1.8418,23.2988-5.5254,7.4893-3.6836,13.9658-8.624,19.4307-14.8262,5.4639-6.2002,9.8379-13.6133,13.123-22.2393,3.2832-8.625,4.9268-17.6348,4.9268-27.0283s-1.6436-18.3857-4.9268-26.9819c-3.2852-8.5947-7.6592-16.0078-13.123-22.2397-5.4648-6.2305-11.9414-11.189-19.4307-14.8726-7.4912-3.6836-15.2568-5.5254-23.2988-5.5254h-78.3677v139.2388ZM339.9941,145.8696V19.8911h71.7368c9.5771,0,18.5098,2.8091,26.7979,8.4263,8.2881,5.6177,14.8877,13.2769,19.7998,22.9766,4.9111,9.7007,7.3672,20.229,7.3672,31.5864s-2.4561,21.8867-7.3672,31.5869c-4.9121,9.7012-11.5117,17.3584-19.7998,22.9756-8.2881,5.6182-17.2207,8.4268-26.7979,8.4268h-71.7368ZM346.625,139.2388h65.106c8.4102,0,16.2227-2.5166,23.4365-7.5508,7.2139-5.0332,12.9697-11.8799,17.2676-20.5361,4.2959-8.6562,6.4463-18.0801,6.4463-28.2715,0-10.1299-2.1504-19.5371-6.4463-28.2256-4.2979-8.6865-10.0693-15.5469-17.3135-20.5815-7.2441-5.0337-15.042-7.5513-23.3906-7.5513h-65.106v112.7168ZM353.2549,132.6089V33.1523h58.4761c7.1836,0,13.874,2.21,20.0762,6.6304,6.2002,4.4199,11.127,10.4521,14.7803,18.0957,3.6514,7.6436,5.4785,15.9775,5.4785,25.002,0,8.9639-1.8271,17.2822-5.4785,24.9561-3.6533,7.6748-8.5801,13.7217-14.7803,18.1416-6.2021,4.4209-12.8926,6.6309-20.0762,6.6309h-58.4761ZM359.8857,125.978h51.8452c9.1475,0,17.0205-4.2197,23.6211-12.6621,6.5986-8.4404,9.8994-18.5859,9.8994-30.4355,0-7.7959-1.5195-15.0107-4.5586-21.6406-3.0381-6.6309-7.1221-11.8643-12.2471-15.7017-5.127-3.8359-10.6982-5.7554-16.7148-5.7554h-51.8452v86.1953ZM366.5156,119.3481V46.4131h45.2153c7.3057,0,13.583,3.5771,18.833,10.728,5.249,7.1533,7.873,15.7334,7.873,25.7393,0,10.0693-2.624,18.6641-7.873,25.7852-5.25,7.1221-11.5273,10.6826-18.833,10.6826h-45.2153ZM373.146,112.7173h38.585c5.4639,0,10.1445-2.915,14.0439-8.748,3.8975-5.832,5.8477-12.8613,5.8477-21.0889,0-8.2881-1.9502-15.333-5.8477-21.1348-3.8994-5.8013-8.5801-8.7021-14.0439-8.7021h-38.585v59.6738Z"/><path d="M555.4819,66.3042h-11.1426c-4.7285,0-8.1357-1.2119-10.2217-3.6377-2.0879-2.4238-3.1309-5.6318-3.1309-9.623,0-8.8408,6.5986-13.2607,19.7988-13.2607,12.4004,0,21.7334,1.8418,27.9951,5.5254l-5.3408,4.0518c-4.2988-1.9639-11.8496-2.9468-22.6543-2.9468-5.2812,0-8.8262.584-10.6367,1.7495-1.8115,1.167-2.7158,2.7944-2.7158,4.8809,0,2.0879.4902,3.7153,1.4727,4.8809.9814,1.167,2.793,1.75,5.4336,1.75h11.4189c8.2881,0,15.7617,1.4121,22.4238,4.2354,6.6611,2.8252,12.1396,6.6768,16.4375,11.5576,4.2969,4.8809,7.582,10.498,9.8545,16.8525,2.2705,6.3535,3.4072,13.1543,3.4072,20.3975,0,5.8936-.8291,11.4814-2.4863,16.7607-1.6582,5.2803-4.1602,10.1299-7.5059,14.5498-3.3467,4.4199-7.3672,8.2422-12.0635,11.4648-4.6963,3.2236-10.2842,5.7402-16.7607,7.5518-6.4775,1.8096-13.4902,2.7168-21.042,2.7168-11.8496,0-22.9463-1.7959-33.29-5.3877-10.3457-3.5918-18.9561-8.6104-25.8311-15.0566l5.3408-3.96c6.2617,5.6494,14.1045,10.0234,23.5293,13.123,9.4229,3.1006,19.5068,4.6504,30.251,4.6504,8.4102,0,16.0078-1.2119,22.792-3.6377,6.7832-2.4248,12.3701-5.7559,16.7607-9.9912,4.3887-4.2363,7.7656-9.1475,10.1299-14.7344,2.3623-5.5859,3.5449-11.6035,3.5449-18.0498,0-8.5322-1.7197-16.2539-5.1572-23.1602-3.4385-6.9072-8.6719-12.5088-15.7012-16.8066-7.0303-4.2969-15.333-6.4463-24.9102-6.4463ZM544.3394,99.4565h10.1299c4.7266,0,8.1338,1.2285,10.2217,3.6836,2.0869,2.4561,3.1309,5.6494,3.1309,9.5771,0,8.8408-6.5996,13.2607-19.7988,13.2607-12.4639,0-21.8252-1.8418-28.0869-5.5254l5.3408-4.0518c4.2969,1.9658,11.8799,2.9473,22.7461,2.9473,5.2793,0,8.8242-.583,10.6367-1.75,1.8096-1.166,2.7158-2.793,2.7158-4.8809,0-2.0264-.5059-3.6377-1.5195-4.835-1.0127-1.1973-2.8701-1.7959-5.5713-1.7959h-9.9453c-8.4727,0-16.1318-1.3809-22.9766-4.1436-6.8457-2.7627-12.4639-6.5684-16.8525-11.4189-4.3896-4.8496-7.751-10.4668-10.083-16.8525-2.334-6.3848-3.5-13.2607-3.5-20.6279,0-5.8936.8291-11.4795,2.4863-16.7603,1.6582-5.2793,4.1592-10.1299,7.5059-14.5503,3.3447-4.4199,7.3672-8.2417,12.0635-11.4648s10.2822-5.7397,16.7607-7.5513c6.4756-1.8101,13.4902-2.7168,21.042-2.7168,11.8477,0,22.9307,1.7959,33.2441,5.3872,10.3145,3.5913,18.9082,8.6104,25.7852,15.0566l-5.3408,3.96c-6.2627-5.6479-14.0898-10.022-23.4834-13.123-9.3926-3.0991-19.4619-4.6504-30.2051-4.6504-8.4121,0-16.0088,1.2129-22.792,3.6377-6.7842,2.4258-12.3721,5.7554-16.7607,9.9917-4.3896,4.2358-7.7666,9.1484-10.1299,14.7344-2.3633,5.5869-3.5449,11.603-3.5449,18.0493,0,8.6562,1.75,16.4541,5.249,23.3906,3.499,6.9385,8.8408,12.5098,16.0234,16.7139,7.1826,4.2061,15.6855,6.3086,25.5088,6.3086ZM544.3394,72.9351h10.498c12.4619,0,22.208,3.8066,29.2383,11.4189,7.0293,7.6133,10.5439,17.0684,10.5439,28.3633,0,11.4814-4.083,20.9824-12.2471,28.502-8.166,7.5205-19.6152,11.2803-34.3496,11.2803-9.8232,0-19.002-1.3496-27.5352-4.0518-8.5342-2.7002-15.625-6.5068-21.2725-11.4189l5.1572-4.1436c5.0332,4.1133,11.373,7.3066,19.0166,9.5771,7.6436,2.2715,15.8535,3.4072,24.6338,3.4072,12.9531,0,22.8525-3.0996,29.6992-9.3008,6.8447-6.2002,10.2676-14.1504,10.2676-23.8516,0-9.5771-2.8711-17.4971-8.6104-23.7588-5.7412-6.2627-13.9512-9.3936-24.6338-9.3936h-10.4062c-8.9639,0-15.6865-2.4541-20.168-7.3672-4.4814-4.9111-6.7217-11.2949-6.7217-19.1543s2.7764-14.2422,8.334-19.1548c5.5557-4.9106,13.8896-7.3667,25.002-7.3667,7.7959,0,15.041.9062,21.7334,2.7163,6.6904,1.8115,12.2158,4.4058,16.5762,7.7817l-5.25,4.0518c-7.6748-5.2793-18.6934-7.9194-33.0596-7.9194-9.2705,0-16.0391,1.8271-20.3057,5.479-4.2676,3.6533-6.4004,8.458-6.4004,14.4121,0,6.0176,1.5801,10.8359,4.7432,14.458,3.1611,3.623,8.334,5.4336,15.5166,5.4336ZM544.3394,86.1958h10.1299c8.9629,0,15.6855,2.4863,20.167,7.459s6.7227,11.3271,6.7227,19.0625c0,7.8594-2.7783,14.2441-8.334,19.1543-5.5566,4.9131-13.8906,7.3672-25.002,7.3672-7.7979,0-15.0566-.9043-21.7793-2.7168-6.7227-1.8096-12.2637-4.4043-16.6221-7.7812l5.249-4.0518c7.6738,5.2803,18.7246,7.9199,33.1523,7.9199,9.2695,0,16.0381-1.8262,20.3057-5.4795,4.2666-3.6523,6.4004-8.4561,6.4004-14.4121s-1.5977-10.7588-4.7891-14.4121c-3.1924-3.6514-8.3799-5.4795-15.5625-5.4795h-10.0381c-12.5859,0-22.4238-3.7598-29.5146-11.2803-7.0908-7.5195-10.6367-17.0215-10.6367-28.502s4.083-20.9805,12.248-28.5015c8.1641-7.52,19.6152-11.2812,34.3496-11.2812,9.8223,0,18.9844,1.3511,27.4883,4.0522,8.5029,2.7021,15.5781,6.5078,21.2266,11.4189l-5.1562,4.144c-5.0352-4.1123-11.3594-7.3052-18.9707-9.5771-7.6133-2.271-15.8096-3.4077-24.5879-3.4077-12.9541,0-22.8545,3.1011-29.6992,9.3013-6.8457,6.2017-10.2676,14.1514-10.2676,23.8511,0,9.6396,2.8848,17.5742,8.6562,23.8047,5.7705,6.2324,14.0586,9.3477,24.8643,9.3477Z"/></g></svg>